<svg xmlns="http://www.w3.org/2000/svg" xmlns:xlink="http://www.w3.org/1999/xlink" width="190" zoomAndPan="magnify" viewBox="0 0 142.5 30.000001" height="40" preserveAspectRatio="xMidYMid meet" version="1.0"><defs><g/><clipPath id="538a9b12f9"><path d="M 7.589844 0.742188 L 35.898438 0.742188 L 35.898438 28.324219 L 7.589844 28.324219 Z M 7.589844 0.742188 " clip-rule="nonzero"/></clipPath></defs><g clip-path="url(#538a9b12f9)"><path fill="#000000" d="M 36.171875 3.71875 L 36.222656 3.71875 L 36.222656 2.234375 L 30.777344 2.234375 L 30.777344 3.1875 C 30.777344 3.371094 30.753906 3.554688 30.707031 3.734375 C 30.597656 4.117188 30.394531 4.433594 30.09375 4.691406 C 30.015625 4.761719 29.929688 4.824219 29.839844 4.875 L 29.007812 5.484375 L 29.007812 2.578125 C 29.007812 2.445312 29.035156 2.316406 29.089844 2.195312 C 29.140625 2.074219 29.214844 1.964844 29.308594 1.871094 C 29.40625 1.777344 29.515625 1.707031 29.636719 1.65625 C 29.761719 1.605469 29.890625 1.578125 30.023438 1.578125 L 30.023438 0.746094 L 13.800781 0.746094 L 13.800781 1.578125 C 13.9375 1.578125 14.066406 1.605469 14.191406 1.65625 C 14.316406 1.707031 14.425781 1.78125 14.523438 1.875 C 14.617188 1.96875 14.691406 2.082031 14.742188 2.203125 C 14.796875 2.328125 14.820312 2.460938 14.820312 2.59375 L 14.820312 5.472656 L 13.988281 4.867188 C 13.898438 4.8125 13.8125 4.75 13.734375 4.679688 C 13.4375 4.417969 13.234375 4.101562 13.132812 3.71875 C 13.089844 3.570312 13.066406 3.421875 13.058594 3.269531 L 13.058594 2.234375 L 7.585938 2.234375 L 7.585938 3.71875 L 7.644531 3.71875 C 7.914062 3.71875 8.171875 3.773438 8.417969 3.875 C 8.664062 3.976562 8.882812 4.125 9.070312 4.3125 C 9.261719 4.503906 9.40625 4.71875 9.511719 4.964844 C 9.613281 5.214844 9.667969 5.46875 9.671875 5.738281 L 9.671875 15.367188 C 9.671875 15.632812 9.617188 15.890625 9.515625 16.140625 C 9.414062 16.390625 9.265625 16.609375 9.078125 16.796875 C 8.886719 16.988281 8.667969 17.136719 8.421875 17.238281 C 8.171875 17.34375 7.914062 17.394531 7.644531 17.394531 L 7.585938 17.394531 L 7.585938 17.84375 L 9.671875 19.359375 L 9.808594 19.464844 L 11.304688 20.558594 L 13.039062 21.820312 L 13.980469 22.507812 L 13.980469 20.3125 L 13.316406 19.832031 C 13.132812 19.695312 13.039062 19.511719 13.039062 19.28125 L 13.039062 6.359375 L 13.980469 7.042969 L 14.820312 7.65625 L 14.820312 23.117188 L 18.1875 25.574219 L 19.132812 26.261719 L 20.410156 27.199219 L 21.910156 28.296875 L 23.40625 27.199219 L 25.628906 25.550781 L 28.996094 23.09375 L 28.996094 15.808594 L 25.628906 13.351562 L 23.40625 11.734375 L 25.628906 10.125 L 28.996094 7.667969 L 29.835938 7.054688 L 30.777344 6.367188 L 30.777344 19.292969 C 30.777344 19.402344 30.753906 19.503906 30.707031 19.601562 C 30.65625 19.695312 30.585938 19.777344 30.5 19.839844 L 29.835938 20.324219 L 29.835938 22.519531 L 30.777344 21.832031 L 32.511719 20.550781 L 34.011719 19.453125 L 34.148438 19.347656 L 36.230469 17.832031 L 36.230469 17.382812 L 36.171875 17.382812 C 35.902344 17.386719 35.640625 17.332031 35.394531 17.230469 C 35.144531 17.128906 34.921875 16.980469 34.734375 16.792969 C 34.542969 16.601562 34.394531 16.382812 34.292969 16.132812 C 34.1875 15.882812 34.136719 15.625 34.136719 15.355469 L 34.136719 5.738281 C 34.136719 5.46875 34.191406 5.210938 34.296875 4.964844 C 34.398438 4.714844 34.546875 4.5 34.738281 4.308594 C 34.929688 4.121094 35.148438 3.976562 35.394531 3.871094 C 35.644531 3.769531 35.902344 3.71875 36.171875 3.71875 Z M 25.628906 7.933594 L 21.910156 10.640625 L 19.132812 8.617188 L 19.132812 10.8125 L 20.410156 11.746094 L 21.910156 12.84375 L 25.628906 15.550781 L 25.628906 23.394531 L 21.910156 26.105469 L 19.132812 24.082031 L 18.1875 23.394531 L 18.1875 2.234375 L 25.628906 2.234375 Z M 25.628906 7.933594 " fill-opacity="1" fill-rule="nonzero"/></g><g fill="#000000" fill-opacity="1"><g transform="translate(40.307105, 11.594293)"><g><path d="M 4.4375 0 L 2.484375 -6.328125 L 2.4375 -6.328125 C 2.507812 -5.046875 2.546875 -4.1875 2.546875 -3.75 L 2.546875 0 L 1.015625 0 L 1.015625 -8.078125 L 3.34375 -8.078125 L 5.265625 -1.90625 L 5.296875 -1.90625 L 7.3125 -8.078125 L 9.65625 -8.078125 L 9.65625 0 L 8.046875 0 L 8.046875 -3.828125 C 8.046875 -4.003906 8.046875 -4.207031 8.046875 -4.4375 C 8.054688 -4.675781 8.085938 -5.304688 8.140625 -6.328125 L 8.09375 -6.328125 L 6 0 Z M 4.4375 0 "/></g></g></g><g fill="#000000" fill-opacity="1"><g transform="translate(52.370644, 11.594293)"><g><path d="M 5.671875 0 L 1.015625 0 L 1.015625 -8.078125 L 5.671875 -8.078125 L 5.671875 -6.671875 L 2.734375 -6.671875 L 2.734375 -4.90625 L 5.46875 -4.90625 L 5.46875 -3.5 L 2.734375 -3.5 L 2.734375 -1.421875 L 5.671875 -1.421875 Z M 5.671875 0 "/></g></g></g><g fill="#000000" fill-opacity="1"><g transform="translate(60.101608, 11.594293)"><g><path d="M 7.640625 0 L 5.921875 0 L 5.921875 -3.484375 L 2.734375 -3.484375 L 2.734375 0 L 1.015625 0 L 1.015625 -8.078125 L 2.734375 -8.078125 L 2.734375 -4.90625 L 5.921875 -4.90625 L 5.921875 -8.078125 L 7.640625 -8.078125 Z M 7.640625 0 "/></g></g></g><g fill="#000000" fill-opacity="1"><g transform="translate(70.153594, 11.594293)"><g><path d="M 7.71875 -4.109375 C 7.71875 -2.785156 7.335938 -1.769531 6.578125 -1.0625 C 5.828125 -0.351562 4.734375 0 3.296875 0 L 1.015625 0 L 1.015625 -8.078125 L 3.546875 -8.078125 C 4.867188 -8.078125 5.894531 -7.726562 6.625 -7.03125 C 7.351562 -6.332031 7.71875 -5.359375 7.71875 -4.109375 Z M 5.9375 -4.078125 C 5.9375 -5.804688 5.171875 -6.671875 3.640625 -6.671875 L 2.734375 -6.671875 L 2.734375 -1.421875 L 3.46875 -1.421875 C 5.113281 -1.421875 5.9375 -2.304688 5.9375 -4.078125 Z M 5.9375 -4.078125 "/></g></g></g><g fill="#000000" fill-opacity="1"><g transform="translate(79.923742, 11.594293)"><g><path d="M 1.015625 0 L 1.015625 -8.078125 L 2.734375 -8.078125 L 2.734375 0 Z M 1.015625 0 "/></g></g></g><g fill="#000000" fill-opacity="1"><g transform="translate(41.058032, 20.08601)"><g><path d="M 0.515625 -4.0625 L 1.78125 -4.0625 C 2.351562 -4.0625 2.769531 -3.976562 3.03125 -3.8125 C 3.289062 -3.644531 3.421875 -3.382812 3.421875 -3.03125 C 3.421875 -2.789062 3.363281 -2.59375 3.25 -2.4375 C 3.132812 -2.28125 2.984375 -2.1875 2.796875 -2.15625 L 2.796875 -2.125 C 3.054688 -2.070312 3.238281 -1.960938 3.34375 -1.796875 C 3.457031 -1.640625 3.515625 -1.429688 3.515625 -1.171875 C 3.515625 -0.804688 3.378906 -0.519531 3.109375 -0.3125 C 2.847656 -0.101562 2.488281 0 2.03125 0 L 0.515625 0 Z M 1.375 -2.453125 L 1.875 -2.453125 C 2.101562 -2.453125 2.269531 -2.488281 2.375 -2.5625 C 2.476562 -2.632812 2.53125 -2.753906 2.53125 -2.921875 C 2.53125 -3.078125 2.472656 -3.1875 2.359375 -3.25 C 2.242188 -3.320312 2.066406 -3.359375 1.828125 -3.359375 L 1.375 -3.359375 Z M 1.375 -1.765625 L 1.375 -0.71875 L 1.9375 -0.71875 C 2.164062 -0.71875 2.335938 -0.757812 2.453125 -0.84375 C 2.566406 -0.9375 2.625 -1.078125 2.625 -1.265625 C 2.625 -1.597656 2.382812 -1.765625 1.90625 -1.765625 Z M 1.375 -1.765625 "/></g></g></g><g fill="#000000" fill-opacity="1"><g transform="translate(48.104851, 20.08601)"><g><path d="M 2.84375 0 L 0.515625 0 L 0.515625 -4.0625 L 2.84375 -4.0625 L 2.84375 -3.359375 L 1.375 -3.359375 L 1.375 -2.46875 L 2.75 -2.46875 L 2.75 -1.765625 L 1.375 -1.765625 L 1.375 -0.71875 L 2.84375 -0.71875 Z M 2.84375 0 "/></g></g></g><g fill="#000000" fill-opacity="1"><g transform="translate(54.516361, 20.08601)"><g><path d="M 4.109375 0 L 3.015625 0 L 1.25 -3.078125 L 1.234375 -3.078125 C 1.265625 -2.523438 1.28125 -2.132812 1.28125 -1.90625 L 1.28125 0 L 0.515625 0 L 0.515625 -4.0625 L 1.59375 -4.0625 L 3.359375 -1.015625 L 3.375 -1.015625 C 3.351562 -1.546875 3.34375 -1.921875 3.34375 -2.140625 L 3.34375 -4.0625 L 4.109375 -4.0625 Z M 4.109375 0 "/></g></g></g><g fill="#000000" fill-opacity="1"><g transform="translate(62.364946, 20.08601)"><g/></g></g><g fill="#000000" fill-opacity="1"><g transform="translate(67.070278, 20.08601)"><g><path d="M 3.84375 0 L 2.984375 0 L 2.984375 -1.75 L 1.375 -1.75 L 1.375 0 L 0.515625 0 L 0.515625 -4.0625 L 1.375 -4.0625 L 1.375 -2.46875 L 2.984375 -2.46875 L 2.984375 -4.0625 L 3.84375 -4.0625 Z M 3.84375 0 "/></g></g></g><g fill="#000000" fill-opacity="1"><g transform="translate(74.646981, 20.08601)"><g><path d="M 3 0 L 2.703125 -0.96875 L 1.21875 -0.96875 L 0.921875 0 L 0 0 L 1.4375 -4.078125 L 2.484375 -4.078125 L 3.921875 0 Z M 2.5 -1.6875 C 2.226562 -2.5625 2.070312 -3.054688 2.03125 -3.171875 C 2 -3.285156 1.976562 -3.378906 1.96875 -3.453125 C 1.90625 -3.210938 1.726562 -2.625 1.4375 -1.6875 Z M 2.5 -1.6875 "/></g></g></g><g fill="#000000" fill-opacity="1"><g transform="translate(81.796447, 20.08601)"><g><path d="M 1.375 -2.25 L 1.65625 -2.25 C 1.925781 -2.25 2.125 -2.296875 2.25 -2.390625 C 2.382812 -2.484375 2.453125 -2.628906 2.453125 -2.828125 C 2.453125 -3.015625 2.382812 -3.148438 2.25 -3.234375 C 2.113281 -3.316406 1.910156 -3.359375 1.640625 -3.359375 L 1.375 -3.359375 Z M 1.375 -1.5625 L 1.375 0 L 0.515625 0 L 0.515625 -4.0625 L 1.6875 -4.0625 C 2.238281 -4.0625 2.644531 -3.957031 2.90625 -3.75 C 3.175781 -3.550781 3.3125 -3.25 3.3125 -2.84375 C 3.3125 -2.601562 3.242188 -2.390625 3.109375 -2.203125 C 2.984375 -2.015625 2.800781 -1.867188 2.5625 -1.765625 C 3.175781 -0.859375 3.570312 -0.269531 3.75 0 L 2.796875 0 L 1.828125 -1.5625 Z M 1.375 -1.5625 "/></g></g></g><g fill="#000000" fill-opacity="1"><g transform="translate(88.776682, 20.08601)"><g><path d="M 0.515625 0 L 0.515625 -4.0625 L 1.375 -4.0625 L 1.375 0 Z M 0.515625 0 "/></g></g></g><g fill="#000000" fill-opacity="1"><g transform="translate(93.887058, 20.08601)"><g><path d="M 3.15625 0 L 0.140625 0 L 0.140625 -0.5625 L 2.078125 -3.34375 L 0.1875 -3.34375 L 0.1875 -4.0625 L 3.109375 -4.0625 L 3.109375 -3.5 L 1.15625 -0.71875 L 3.15625 -0.71875 Z M 3.15625 0 "/></g></g></g></svg>